<?xml version="1.0" encoding="UTF-8"?>
<svg xmlns="http://www.w3.org/2000/svg" xmlns:xlink="http://www.w3.org/1999/xlink" width="34px" height="px" viewBox="0 0 34 34" version="1.1">
<g id="surface1">
<path style=" stroke:none;fill-rule:nonzero;fill:rgb(100%,88.235295%,30.19608%);fill-opacity:1;" d="M 3.324219 18.109375 L 1.109375 18.109375 C 0.496094 18.109375 0 17.613281 0 17 C 0 16.386719 0.496094 15.890625 1.109375 15.890625 L 3.324219 15.890625 C 3.9375 15.890625 4.433594 16.386719 4.433594 17 C 4.433594 17.613281 3.9375 18.109375 3.324219 18.109375 Z M 3.324219 18.109375 "/>
<path style=" stroke:none;fill-rule:nonzero;fill:rgb(100%,80.000001%,20%);fill-opacity:1;" d="M 32.890625 18.109375 L 30.675781 18.109375 C 30.0625 18.109375 29.566406 17.613281 29.566406 17 C 29.566406 16.386719 30.0625 15.890625 30.675781 15.890625 L 32.890625 15.890625 C 33.503906 15.890625 34 16.386719 34 17 C 34 17.613281 33.503906 18.109375 32.890625 18.109375 Z M 32.890625 18.109375 "/>
<path style=" stroke:none;fill-rule:nonzero;fill:rgb(100%,88.235295%,30.19608%);fill-opacity:1;" d="M 3.238281 26.054688 C 2.855469 26.054688 2.484375 25.855469 2.277344 25.5 C 1.972656 24.96875 2.152344 24.292969 2.683594 23.984375 L 4.605469 22.875 C 5.132812 22.570312 5.8125 22.753906 6.117188 23.28125 C 6.425781 23.8125 6.242188 24.492188 5.710938 24.796875 L 3.792969 25.90625 C 3.617188 26.007812 3.425781 26.054688 3.238281 26.054688 Z M 3.238281 26.054688 "/>
<path style=" stroke:none;fill-rule:nonzero;fill:rgb(100%,80.000001%,20%);fill-opacity:1;" d="M 28.84375 11.273438 C 28.460938 11.273438 28.085938 11.074219 27.882812 10.71875 C 27.574219 10.1875 27.757812 9.507812 28.289062 9.203125 L 30.207031 8.09375 C 30.738281 7.789062 31.417969 7.96875 31.722656 8.5 C 32.027344 9.03125 31.847656 9.707031 31.316406 10.015625 L 29.394531 11.125 C 29.222656 11.222656 29.03125 11.273438 28.84375 11.273438 Z M 28.84375 11.273438 "/>
<path style=" stroke:none;fill-rule:nonzero;fill:rgb(100%,88.235295%,30.19608%);fill-opacity:1;" d="M 9.054688 31.871094 C 8.863281 31.871094 8.675781 31.824219 8.5 31.722656 C 7.96875 31.417969 7.789062 30.738281 8.09375 30.207031 L 9.203125 28.289062 C 9.507812 27.757812 10.1875 27.574219 10.71875 27.882812 C 11.246094 28.1875 11.429688 28.867188 11.125 29.394531 L 10.015625 31.316406 C 9.808594 31.671875 9.4375 31.871094 9.054688 31.871094 Z M 9.054688 31.871094 "/>
<path style=" stroke:none;fill-rule:nonzero;fill:rgb(100%,80.000001%,20%);fill-opacity:1;" d="M 23.835938 6.265625 C 23.648438 6.265625 23.457031 6.21875 23.28125 6.117188 C 22.753906 5.8125 22.570312 5.132812 22.878906 4.605469 L 23.984375 2.683594 C 24.292969 2.152344 24.96875 1.972656 25.5 2.277344 C 26.03125 2.582031 26.210938 3.261719 25.90625 3.792969 L 24.796875 5.710938 C 24.589844 6.066406 24.21875 6.265625 23.835938 6.265625 Z M 23.835938 6.265625 "/>
<path style=" stroke:none;fill-rule:nonzero;fill:rgb(100%,80.000001%,20%);fill-opacity:1;" d="M 24.945312 31.871094 C 24.5625 31.871094 24.191406 31.671875 23.984375 31.316406 L 22.875 29.394531 C 22.570312 28.867188 22.753906 28.1875 23.28125 27.882812 C 23.816406 27.574219 24.492188 27.757812 24.796875 28.289062 L 25.90625 30.207031 C 26.210938 30.738281 26.03125 31.417969 25.5 31.722656 C 25.324219 31.824219 25.132812 31.871094 24.945312 31.871094 Z M 24.945312 31.871094 "/>
<path style=" stroke:none;fill-rule:nonzero;fill:rgb(100%,88.235295%,30.19608%);fill-opacity:1;" d="M 10.164062 6.265625 C 9.78125 6.265625 9.410156 6.066406 9.203125 5.710938 L 8.09375 3.792969 C 7.789062 3.261719 7.96875 2.582031 8.5 2.277344 C 9.03125 1.972656 9.707031 2.152344 10.015625 2.683594 L 11.125 4.605469 C 11.429688 5.132812 11.246094 5.8125 10.71875 6.117188 C 10.542969 6.21875 10.351562 6.265625 10.164062 6.265625 Z M 10.164062 6.265625 "/>
<path style=" stroke:none;fill-rule:nonzero;fill:rgb(100%,80.000001%,20%);fill-opacity:1;" d="M 30.761719 26.054688 C 30.574219 26.054688 30.382812 26.007812 30.207031 25.90625 L 28.289062 24.796875 C 27.757812 24.492188 27.574219 23.8125 27.882812 23.28125 C 28.1875 22.753906 28.867188 22.570312 29.394531 22.875 L 31.316406 23.984375 C 31.847656 24.292969 32.027344 24.96875 31.722656 25.5 C 31.515625 25.855469 31.144531 26.054688 30.761719 26.054688 Z M 30.761719 26.054688 "/>
<path style=" stroke:none;fill-rule:nonzero;fill:rgb(100%,88.235295%,30.19608%);fill-opacity:1;" d="M 5.15625 11.273438 C 4.96875 11.273438 4.777344 11.222656 4.605469 11.121094 L 2.683594 10.015625 C 2.152344 9.707031 1.972656 9.03125 2.277344 8.5 C 2.585938 7.96875 3.261719 7.789062 3.792969 8.09375 L 5.710938 9.203125 C 6.242188 9.507812 6.425781 10.1875 6.117188 10.71875 C 5.914062 11.074219 5.539062 11.273438 5.15625 11.273438 Z M 5.15625 11.273438 "/>
<path style=" stroke:none;fill-rule:nonzero;fill:rgb(100%,75.294119%,20%);fill-opacity:1;" d="M 17 27.347656 C 11.292969 27.347656 6.652344 22.707031 6.652344 17 C 6.652344 11.292969 11.292969 6.652344 17 6.652344 C 22.707031 6.652344 27.347656 11.292969 27.347656 17 C 27.347656 22.707031 22.707031 27.347656 17 27.347656 Z M 17 27.347656 "/>
<path style=" stroke:none;fill-rule:nonzero;fill:rgb(97.647059%,66.274512%,14.901961%);fill-opacity:1;" d="M 27.347656 17 C 27.347656 11.292969 22.707031 6.652344 17 6.652344 L 17 27.347656 C 22.707031 27.347656 27.347656 22.707031 27.347656 17 Z M 27.347656 17 "/>
<path style=" stroke:none;fill-rule:nonzero;fill:rgb(100%,88.235295%,30.19608%);fill-opacity:1;" d="M 17 4.433594 C 16.386719 4.433594 15.890625 3.9375 15.890625 3.324219 L 15.890625 1.109375 C 15.890625 0.496094 16.386719 0 17 0 C 17.613281 0 18.109375 0.496094 18.109375 1.109375 L 18.109375 3.324219 C 18.109375 3.9375 17.613281 4.433594 17 4.433594 Z M 17 4.433594 "/>
<path style=" stroke:none;fill-rule:nonzero;fill:rgb(100%,80.000001%,20%);fill-opacity:1;" d="M 18.109375 3.324219 L 18.109375 1.109375 C 18.109375 0.496094 17.613281 0 17 0 L 17 4.433594 C 17.613281 4.433594 18.109375 3.9375 18.109375 3.324219 Z M 18.109375 3.324219 "/>
<path style=" stroke:none;fill-rule:nonzero;fill:rgb(100%,88.235295%,30.19608%);fill-opacity:1;" d="M 17 34 C 16.386719 34 15.890625 33.503906 15.890625 32.890625 L 15.890625 30.675781 C 15.890625 30.0625 16.386719 29.566406 17 29.566406 C 17.613281 29.566406 18.109375 30.0625 18.109375 30.675781 L 18.109375 32.890625 C 18.109375 33.503906 17.613281 34 17 34 Z M 17 34 "/>
<path style=" stroke:none;fill-rule:nonzero;fill:rgb(100%,80.000001%,20%);fill-opacity:1;" d="M 18.109375 32.890625 L 18.109375 30.675781 C 18.109375 30.0625 17.613281 29.566406 17 29.566406 L 17 34 C 17.613281 34 18.109375 33.503906 18.109375 32.890625 Z M 18.109375 32.890625 "/>
</g>
</svg>
