<svg width="24" height="24" xmlns="http://www.w3.org/2000/svg" fill="#ffffff" role="img">
 <title>styled-components</title>

 <g>
  <title>Layer 1</title>
  <path stroke="null" id="svg_1" d="m19.41768,0.67005l-0.16268,0.8481c-0.25161,1.60727 -0.16051,2.06711 0.52925,2.6636l0.6659,0.55094l-0.68976,3.07571c-0.41212,1.83502 -0.91751,3.37287 -1.23853,3.87826c-0.27547,0.43598 -0.59649,1.07802 -0.6659,1.4229c-0.11496,0.41212 -0.50539,0.82641 -1.10188,1.19298c-0.52708,0.29933 -1.56172,1.10188 -2.29486,1.74609c-0.58564,0.52708 -0.98909,0.85027 -1.20816,0.98909l-0.71579,0.56612c-0.22992,0.36874 -0.36006,0.6659 -0.40995,0.89148c-0.04989,0.23209 -0.02169,0.38609 0.05206,0.49888c0.07158,0.10845 0.19521,0.18437 0.3644,0.23209a2.06927,2.06927 0 0 0 0.61167,0.04989a6.50715,6.50715 0 0 0 1.37084,-0.24293c0.15183,-0.04121 0.27113,-0.08025 0.37525,-0.11496c0.16051,-0.19738 0.53142,-0.57046 1.18864,-1.21901c1.74392,-1.72006 2.40982,-2.66143 1.72223,-2.40765c-0.25378,0.0911 -0.13882,-0.13882 0.29716,-0.59866c0.91968,-0.89582 1.44676,-2.24931 2.54864,-6.49414c0.87196,-3.35118 0.87196,-3.3989 1.514,-3.3989c0.3015,0 1.15394,0.05206 1.15394,0.05206l0,-4.18193l-1.95648,0l-1.94998,0zm-7.72616,7.16871c-0.63336,-0.00434 -1.99553,0.96089 -6.07334,4.29038c-0.17569,0.41863 -0.19088,0.70711 -0.11062,0.89365c0.05206,0.12797 0.1475,0.21691 0.27981,0.28198c0.13014,0.06507 0.29933,0.10411 0.48587,0.1193c0.37091,0.03254 0.80906,-0.02603 1.16261,-0.09544l0.2386,-0.05423a0.83725,0.83725 0 0 1 0.31234,-0.25595c0.25161,-0.13882 1.30794,-1.10188 2.36427,-2.13435c1.85888,-1.88274 2.29486,-2.733 1.53786,-3.00847a0.52057,0.52057 0 0 0 -0.19521,-0.03687l-0.00217,0zm4.76324,1.30794c-0.55745,0.01518 -1.56172,0.66156 -3.28177,2.03457c-0.86328,0.7006 -1.40988,1.07802 -1.70271,1.1561l-1.13658,0.89799c-0.4273,0.78086 -0.49021,1.26456 -0.37741,1.53135a0.54226,0.54226 0 0 0 0.29933,0.29065a1.39687,1.39687 0 0 0 0.52057,0.09761a4.72853,4.72853 0 0 0 1.25805,-0.18437a7.51793,7.51793 0 0 0 0.63119,-0.19955l0.0629,-0.02603l0.11496,-0.06073c0.21691,-0.27981 0.71579,-0.80689 1.34047,-1.41422c1.97384,-1.90443 2.98245,-3.25792 2.77639,-3.7633c-0.09327,-0.2451 -0.25378,-0.36874 -0.50539,-0.36006zm-5.25778,2.34258c-0.16051,0.01735 -0.52057,0.29499 -1.16912,0.86328c-0.93703,0.82858 -1.95865,1.30577 -2.31221,1.0932a8.61113,8.61113 0 0 1 -0.24727,0.05206c-0.36006,0.07158 -0.80906,0.13014 -1.21033,0.09761a1.53569,1.53569 0 0 1 -0.5466,-0.13665a0.73097,0.73097 0 0 1 -0.3644,-0.36874c-0.08025,-0.19521 -0.08025,-0.43815 0.01085,-0.74832l-1.40988,1.15827l-3.19067,2.63974l0,4.27954l10.45483,-8.23589a0.88931,0.88931 0 0 1 0.0347,-0.26679c0.08025,-0.29065 0.07592,-0.43815 -0.04989,-0.42513l0,-0.00217zm4.49861,1.38602c-0.15834,0 -0.42297,0.22341 -0.84593,0.67241c-0.5748,0.61384 -1.47929,1.20816 -1.95865,1.32963l-0.07375,0.03904a4.75239,4.75239 0 0 1 -0.2386,0.0911c-0.13014,0.04338 -0.29933,0.09544 -0.49454,0.1475c-0.39043,0.10628 -0.8763,0.20389 -1.31011,0.19305a1.58775,1.58775 0 0 1 -0.59649,-0.11713a0.74615,0.74615 0 0 1 -0.39911,-0.39043c-0.1258,-0.3015 -0.07592,-0.72446 0.19955,-1.32529l-9.22281,7.26415l0,2.61371l4.05179,0l8.59378,-6.75009c0.22341,-0.24727 0.55962,-0.58564 1.01295,-1.00861c1.21467,-1.12574 1.49014,-1.514 1.49014,-2.0888c0,-0.44682 -0.04989,-0.67241 -0.20823,-0.67241l0,0.00217zm2.04542,4.22965l-0.73531,0.73314c-0.41212,0.39043 -1.14743,0.87196 -1.65065,1.07802l-0.09978,0.04338l-0.00651,0.01085l-0.02169,0.02169c-0.01952,0.01518 -0.0282,0.01735 -0.04338,0.02386a7.44418,7.44418 0 0 1 -0.61167,0.20172a6.63296,6.63296 0 0 1 -1.40988,0.24944a2.24497,2.24497 0 0 1 -0.67241,-0.05856a0.78953,0.78953 0 0 1 -0.47285,-0.31234c-0.10411,-0.16051 -0.13448,-0.37525 -0.07592,-0.63987a2.40765,2.40765 0 0 1 0.20606,-0.54226l-6.93446,5.47902l9.22281,0l1.10188,-1.26239c1.514,-1.76561 2.20376,-3.028 2.20376,-4.10818l0,-0.91751z"/>
 </g>
</svg>