<svg width="24" height="24" xmlns="http://www.w3.org/2000/svg" fill="#121212" role="img">
 <title>styled-components</title>

 <g>
  <title>Layer 1</title>
  <path stroke="null" id="svg_1" d="m19.51759,0.4848l-0.16541,0.86235c-0.25584,1.63428 -0.16321,2.10185 0.53814,2.70836l0.67709,0.5602l-0.70135,3.12741c-0.41905,1.86586 -0.93293,3.42957 -1.25935,3.94345c-0.2801,0.44331 -0.60651,1.09614 -0.67709,1.44681c-0.11689,0.41905 -0.51388,0.8403 -1.1204,1.21303c-0.53594,0.30436 -1.58797,1.1204 -2.33343,1.77543c-0.59549,0.53594 -1.00571,0.86456 -1.22847,1.00571l-0.72782,0.57564c-0.23378,0.37494 -0.36611,0.67709 -0.41684,0.90646c-0.05073,0.23599 -0.02206,0.39258 0.05293,0.50727c0.07278,0.11028 0.1985,0.18747 0.37053,0.23599a2.10405,2.10405 0 0 0 0.62195,0.05073a6.61652,6.61652 0 0 0 1.39388,-0.24702c0.15439,-0.0419 0.27569,-0.0816 0.38155,-0.11689c0.16321,-0.2007 0.54035,-0.58005 1.20862,-1.2395c1.77323,-1.74897 2.45032,-2.70616 1.75117,-2.44811c-0.25804,0.09263 -0.14115,-0.14115 0.30215,-0.60872c0.93514,-0.91087 1.47107,-2.28711 2.59147,-6.60329c0.88661,-3.40751 0.88661,-3.45603 1.53944,-3.45603c0.30657,0 1.17333,0.05293 1.17333,0.05293l0,-4.25222l-1.98937,0l-1.98275,0zm-7.85602,7.2892c-0.64401,-0.00441 -2.02907,0.97704 -6.17542,4.3625c-0.17865,0.42566 -0.19408,0.719 -0.11248,0.90867c0.05293,0.13012 0.14997,0.22055 0.28451,0.28672c0.13233,0.06617 0.30436,0.10586 0.49403,0.1213c0.37714,0.03308 0.82265,-0.02647 1.18215,-0.09704l0.24261,-0.05514a0.85133,0.85133 0 0 1 0.31759,-0.26025c0.25584,-0.14115 1.32992,-1.1204 2.404,-2.17022c1.89012,-1.91438 2.33343,-2.77894 1.56371,-3.05904a0.52932,0.52932 0 0 0 -0.1985,-0.03749l-0.00221,0zm4.8433,1.32992c-0.56682,0.01544 -1.58797,0.67268 -3.33693,2.06877c-0.87779,0.71238 -1.43358,1.09614 -1.73132,1.17554l-1.15569,0.91308c-0.43449,0.79398 -0.49844,1.28581 -0.38376,1.55709a0.55138,0.55138 0 0 0 0.30436,0.29554a1.42035,1.42035 0 0 0 0.52932,0.09925a4.80801,4.80801 0 0 0 1.27919,-0.18747a7.64429,7.64429 0 0 0 0.6418,-0.20291l0.06396,-0.02647l0.11689,-0.06175c0.22055,-0.28451 0.72782,-0.82045 1.363,-1.43799c2.00701,-1.93644 3.03257,-3.31267 2.82305,-3.82656c-0.09484,-0.24922 -0.25804,-0.37494 -0.51388,-0.36611zm-5.34615,2.38195c-0.16321,0.01764 -0.52932,0.29995 -1.18877,0.87779c-0.95278,0.8425 -1.99157,1.32772 -2.35107,1.11158a8.75587,8.75587 0 0 1 -0.25143,0.05293c-0.36611,0.07278 -0.82265,0.13233 -1.23067,0.09925a1.5615,1.5615 0 0 1 -0.55579,-0.13895a0.74326,0.74326 0 0 1 -0.37053,-0.37494c-0.0816,-0.1985 -0.0816,-0.44551 0.01103,-0.7609l-1.43358,1.17774l-3.2443,2.6841l0,4.35147l10.63055,-8.37431a0.90426,0.90426 0 0 1 0.03529,-0.27128c0.0816,-0.29554 0.07719,-0.44551 -0.05073,-0.43228l0,-0.00221zm4.57422,1.40932c-0.161,0 -0.43007,0.22717 -0.86015,0.68371c-0.58446,0.62416 -1.50416,1.22847 -1.99157,1.35198l-0.07499,0.0397a4.83227,4.83227 0 0 1 -0.24261,0.09263c-0.13233,0.04411 -0.30436,0.09704 -0.50286,0.14997c-0.39699,0.10807 -0.89103,0.20732 -1.33213,0.19629a1.61443,1.61443 0 0 1 -0.60651,-0.1191a0.75869,0.75869 0 0 1 -0.40581,-0.39699c-0.12792,-0.30657 -0.07719,-0.73664 0.20291,-1.34757l-9.37782,7.38625l0,2.65764l4.11989,0l8.73822,-6.86354c0.22717,-0.25143 0.56902,-0.59549 1.02997,-1.02556c1.23508,-1.14466 1.51518,-1.53944 1.51518,-2.1239c0,-0.45433 -0.05073,-0.68371 -0.21173,-0.68371l0,0.00221zm2.07979,4.30074l-0.74767,0.74546c-0.41905,0.39699 -1.16671,0.88661 -1.67839,1.09614l-0.10145,0.04411l-0.00662,0.01103l-0.02206,0.02206c-0.01985,0.01544 -0.02867,0.01764 -0.04411,0.02426a7.5693,7.5693 0 0 1 -0.62195,0.20511a6.74444,6.74444 0 0 1 -1.43358,0.25363a2.2827,2.2827 0 0 1 -0.68371,-0.05955a0.8028,0.8028 0 0 1 -0.4808,-0.31759c-0.10586,-0.16321 -0.13674,-0.38155 -0.07719,-0.65062a2.44811,2.44811 0 0 1 0.20952,-0.55138l-7.05101,5.57111l9.37782,0l1.1204,-1.28361c1.53944,-1.79528 2.2408,-3.07889 2.2408,-4.17723l0,-0.93293z"/>
 </g>
</svg>